<svg xmlns="http://www.w3.org/2000/svg" viewBox="0 0 120 120" width="120" height="120">
  <defs>
    <linearGradient id="g1" x1="0%" y1="0%" x2="100%" y2="100%">
      <stop offset="0%" style="stop-color:#f59e0b"/>
      <stop offset="100%" style="stop-color:#ef4444"/>
    </linearGradient>
    <linearGradient id="g2" x1="0%" y1="0%" x2="100%" y2="100%">
      <stop offset="0%" style="stop-color:#10b981"/>
      <stop offset="100%" style="stop-color:#06b6d4"/>
    </linearGradient>
  </defs>
  <!-- Outer ring -->
  <circle cx="60" cy="60" r="56" fill="none" stroke="url(#g1)" stroke-width="2.5" opacity="0.9"/>
  <!-- Book base -->
  <path d="M30 75 Q60 68 90 75 L90 45 Q60 38 30 45 Z" fill="url(#g2)" opacity="0.85"/>
  <line x1="60" y1="38" x2="60" y2="75" stroke="#f8fafc" stroke-width="1.5" opacity="0.6"/>
  <!-- Flame / torch on top -->
  <path d="M60 20 C55 28 52 33 56 38 C58 41 62 41 64 38 C68 33 65 28 60 20Z" fill="url(#g1)"/>
  <path d="M60 26 C58 30 57 33 59 36 C60 37.5 61 37.5 62 36 C64 33 62 30 60 26Z" fill="#fef3c7" opacity="0.8"/>
  <!-- Star sparkles -->
  <circle cx="38" cy="35" r="2" fill="#f59e0b" opacity="0.7"/>
  <circle cx="82" cy="35" r="1.5" fill="#10b981" opacity="0.7"/>
  <circle cx="28" cy="60" r="1.5" fill="#f59e0b" opacity="0.5"/>
  <circle cx="92" cy="60" r="1.5" fill="#10b981" opacity="0.5"/>
</svg>
